HIERARCHY
ROOT SpineBase
{
  OFFSET 0.000000 0.000000 0.000000
  CHANNELS 6 Xposition Yposition Zposition Zrotation Xrotation Yrotation
  JOINT SpineMid
  {
    OFFSET 0.000000 28.511179 0.000000
    CHANNELS 3 Zrotation Xrotation Yrotation
    JOINT SpineShoulder
    {
      OFFSET 0.527336 20.783334 -0.099509
      CHANNELS 3 Zrotation Xrotation Yrotation
      JOINT Neck
      {
        OFFSET 0.247043 6.703233 -0.251168
        CHANNELS 3 Zrotation Xrotation Yrotation
        JOINT Head
        {
          OFFSET -10.297676 5.717457 -4.285171
          CHANNELS 3 Zrotation Xrotation Yrotation
          End Site
          {
            OFFSET 0 0 0
          }
        }
      }
      JOINT ShoulderLeft
      {
        OFFSET -11.033535 -0.430343 8.084227
        CHANNELS 3 Zrotation Xrotation Yrotation
        JOINT ElbowLeft
        {
          OFFSET 3.374921 -16.825621 9.162671
          CHANNELS 3 Zrotation Xrotation Yrotation
          JOINT WristLeft
          {
            OFFSET -4.648102 -12.346107 6.758072
            CHANNELS 3 Zrotation Xrotation Yrotation
            JOINT HandLeft
            {
              OFFSET -1.652390 -3.954785 2.550709
              CHANNELS 3 Zrotation Xrotation Yrotation
              JOINT HandTipLeft
              {
                OFFSET 1.445816 -0.350186 -0.107051
                CHANNELS 3 Zrotation Xrotation Yrotation
                End Site
                {
                  OFFSET 0 0 0
                }
              }
              JOINT ThumbLeft
              {
                OFFSET 0.722398 -0.511850 -2.015764
                CHANNELS 3 Zrotation Xrotation Yrotation
                End Site
                {
                  OFFSET 0 0 0
                }
              }
            }
          }
        }
      }
      JOINT ShoulderRight
      {
        OFFSET 32.838428 -11.191786 -20.584116
        CHANNELS 3 Zrotation Xrotation Yrotation
        JOINT ElbowRight
        {
          OFFSET 2.237931 -20.750125 4.268801
          CHANNELS 3 Zrotation Xrotation Yrotation
          JOINT WristRight
          {
            OFFSET -4.727057 0.978957 -11.070835
            CHANNELS 3 Zrotation Xrotation Yrotation
            JOINT HandRight
            {
              OFFSET -3.388799 1.876239 -6.635857
              CHANNELS 3 Zrotation Xrotation Yrotation
              JOINT HandTipRight
              {
                OFFSET -2.863866 2.827809 -5.051119
                CHANNELS 3 Zrotation Xrotation Yrotation
                End Site
                {
                  OFFSET 0 0 0
                }
              }
              JOINT ThumbRight
              {
                OFFSET 1.328194 6.109372 0.407182
                CHANNELS 3 Zrotation Xrotation Yrotation
                End Site
                {
                  OFFSET 0 0 0
                }
              }
            }
          }
        }
      }
    }
  }
  JOINT HipLeft
  {
    OFFSET -2.606082 -1.727864 -0.911382
    CHANNELS 3 Zrotation Xrotation Yrotation
    JOINT KneeLeft
    {
      OFFSET 19.138854 -11.914679 -31.825758
      CHANNELS 3 Zrotation Xrotation Yrotation
      JOINT AnkleLeft
      {
        OFFSET 19.990920 6.385246 35.561836
        CHANNELS 3 Zrotation Xrotation Yrotation
        JOINT FootLeft
        {
          OFFSET 8.291821 -0.760594 1.712917
          CHANNELS 3 Zrotation Xrotation Yrotation
          End Site
          {
            OFFSET 0 0 0
          }
        }
      }
    }
  }
  JOINT HipRight
  {
    OFFSET 4.511992 -0.857451 -4.667305
    CHANNELS 3 Zrotation Xrotation Yrotation
    JOINT KneeRight
    {
      OFFSET 44.025450 -2.346398 4.335001
      CHANNELS 3 Zrotation Xrotation Yrotation
      JOINT AnkleRight
      {
        OFFSET 19.044287 21.608440 24.372225
        CHANNELS 3 Zrotation Xrotation Yrotation
        JOINT FootRight
        {
          OFFSET -3.733955 -9.916890 -5.851017
          CHANNELS 3 Zrotation Xrotation Yrotation
          End Site
          {
            OFFSET 0 0 0
          }
        }
      }
    }
  }
}
MOTION
Frames: 14
Frame Time: 0.033333
-91.765803 23.307465 328.194956 24.004193 -1.968037 -22.736540 2.288922 -0.432906 23.620160 0.310240 -0.151790 0.952664 -48.546231 9.809545 -6.302867 0.000000 0.000000 0.000000 -42.577535 4.204746 -8.204721 8.188979 4.334576 3.909772 0.375233 -0.241575 -0.536629 7.493987 -2.353276 6.057751 0.000000 0.000000 0.000000 0.000000 0.000000 0.000000 -69.520572 44.822681 17.198571 -9.536192 5.752900 40.201815 2.905891 -5.421458 -2.238483 20.863578 -32.818903 31.752219 0.000000 0.000000 0.000000 0.000000 0.000000 0.000000 -54.181799 -51.591245 -77.902716 -4.027199 52.109063 110.336633 -2.208731 29.570089 -36.776195 0.000000 0.000000 0.000000 -48.643960 -17.176053 36.018081 43.995891 0.159855 -44.621682 15.005276 -12.271911 20.375115 0.000000 0.000000 0.000000
-90.428400 21.890964 325.992748 25.068407 0.729195 -17.968434 1.473104 -0.770710 18.228849 0.462594 -0.151729 0.944187 -46.347347 5.385852 -10.658034 0.000000 0.000000 0.000000 -43.008703 1.651203 -9.536993 8.189527 4.335447 3.911196 0.366817 -0.240050 -0.541980 7.494237 -2.352327 6.057494 0.000000 0.000000 0.000000 0.000000 0.000000 0.000000 -62.944334 41.201639 11.603805 -13.858436 7.643258 42.801944 3.138184 -9.374619 -0.018539 13.122793 -21.780743 21.497330 0.000000 0.000000 0.000000 0.000000 0.000000 0.000000 -66.496709 -49.052576 -94.593090 -10.153904 55.790728 119.235446 -8.703285 36.250027 -33.667434 0.000000 0.000000 0.000000 -53.214850 -16.597225 31.563030 47.609809 -2.389850 -46.097036 20.090583 -14.512076 22.549480 0.000000 0.000000 0.000000
-89.129825 21.689709 324.909086 26.314304 1.748079 -7.722116 0.938624 -0.862185 7.674350 0.368745 0.055329 0.904367 -45.225201 2.641078 -12.929403 0.000000 0.000000 0.000000 -43.819702 0.367362 -10.241868 8.189970 4.336143 3.912072 0.361628 -0.239019 -0.545346 7.494708 -2.352009 6.057679 0.000000 0.000000 0.000000 0.000000 0.000000 0.000000 -53.216238 35.632347 6.306865 -20.833449 11.562715 45.458745 4.845316 -19.571103 -0.587754 10.228991 -9.066847 17.452383 0.000000 0.000000 0.000000 0.000000 0.000000 0.000000 -72.770828 -40.098027 -100.543308 -13.752173 53.690477 114.923249 -14.578060 33.696710 -26.234890 0.000000 0.000000 0.000000 -61.759258 -10.656010 26.854353 54.981680 -7.136088 -48.946478 25.687849 -13.116211 22.417338 0.000000 0.000000 0.000000
-88.496047 22.669737 324.822863 27.272945 1.691239 5.915301 0.634433 -1.001174 -5.966681 0.408219 0.058673 0.935881 -44.933005 1.593112 -14.095716 0.000000 0.000000 0.000000 -44.734783 0.408386 -10.260734 8.189098 4.337166 3.912022 -3.357114 -2.652838 -2.342481 12.211405 0.000965 4.938875 0.000000 0.000000 0.000000 0.000000 0.000000 0.000000 -46.365784 32.530391 4.240328 -27.644885 14.025867 48.651846 6.316856 -37.042780 3.063150 8.902802 10.367401 9.664133 0.000000 0.000000 0.000000 0.000000 0.000000 0.000000 -78.693724 -27.437644 -102.708698 -14.520540 54.966350 113.202637 -18.994323 34.541076 -22.640649 0.000000 0.000000 0.000000 -70.089671 0.144651 23.940860 60.913070 -11.225057 -48.336325 30.304293 -11.807793 18.797333 0.000000 0.000000 0.000000
-88.877182 25.033201 326.036898 27.904695 0.398524 20.100722 0.470974 -1.239604 -19.784233 0.342140 -0.055273 1.005680 -44.748009 1.976440 -14.670384 0.000000 0.000000 0.000000 -46.394385 -2.521898 -11.390892 3.332341 5.985758 3.524598 4.411549 1.322795 1.258834 21.663006 3.185453 11.307861 0.000000 0.000000 0.000000 0.000000 0.000000 0.000000 -43.339126 32.115222 4.141812 -30.444262 13.032737 52.605875 10.260482 -64.761179 8.357231 12.924985 39.059057 -4.562556 0.000000 0.000000 0.000000 0.000000 0.000000 0.000000 -80.175656 -15.056196 -95.995258 -10.228495 55.204066 103.369521 -24.242322 34.659574 -18.408664 0.000000 0.000000 0.000000 -80.027602 11.341496 28.283162 67.549465 -16.255836 -45.990215 39.449713 -17.905665 19.668840 0.000000 0.000000 0.000000
-88.282952 25.731120 325.766479 28.514673 -0.227394 28.505994 0.562604 -1.570116 -27.976272 0.453833 -0.452409 1.173758 -48.792150 7.232297 -6.743589 0.000000 0.000000 0.000000 -47.831354 0.151573 -10.528988 5.548061 4.695618 4.038935 1.194818 -0.119648 -0.292136 20.183675 4.773019 14.227754 0.000000 0.000000 0.000000 0.000000 0.000000 0.000000 -43.622057 32.161510 4.349112 -31.254097 10.579573 58.308834 -148.030788 -83.724283 -154.741924 21.985137 65.097884 -19.290792 0.000000 0.000000 0.000000 0.000000 0.000000 0.000000 -80.028963 -6.463123 -97.405311 -16.825590 52.484276 110.113483 -28.453348 34.327813 -15.263040 0.000000 0.000000 0.000000 -89.854931 16.710073 34.741333 73.248437 -20.715536 -41.337556 48.398021 -24.792479 20.070762 0.000000 0.000000 0.000000
-87.662294 26.074738 325.393983 28.981635 -1.295953 33.778464 0.847852 -1.822703 -32.961467 0.543884 -0.866356 1.353224 -52.821269 11.851586 1.185613 0.000000 0.000000 0.000000 -47.905878 6.500632 -7.656244 11.121531 2.770582 4.811436 8.482020 3.918463 3.742337 -11.866445 -8.149000 -3.599454 0.000000 0.000000 0.000000 0.000000 0.000000 0.000000 -39.788117 30.173226 3.673810 -35.943332 13.253655 61.558691 -153.559061 -71.299394 -162.638301 25.726654 73.523920 -27.246357 0.000000 0.000000 0.000000 0.000000 0.000000 0.000000 -83.764113 -1.393225 -95.251207 -18.978975 55.773196 111.578767 -34.126679 35.738587 -10.797211 0.000000 0.000000 0.000000 -97.802153 18.312092 42.189822 76.501133 -24.568952 -36.261199 56.073725 -35.366486 25.584891 0.000000 0.000000 0.000000
-87.042460 26.474001 325.091930 28.996821 -1.929810 40.448871 1.162600 -2.556185 -39.411957 0.679173 -1.069980 1.465018 -53.740967 13.517147 4.631975 0.000000 0.000000 0.000000 -46.875864 15.866461 -3.338383 19.985851 0.377648 7.328801 13.606353 9.517031 5.693669 -64.650036 -6.870522 -31.784287 0.000000 0.000000 0.000000 0.000000 0.000000 0.000000 -35.225442 26.943976 2.765254 -42.006975 18.639485 62.873810 -159.600291 -65.272135 -168.843435 34.501759 79.510312 -39.035857 0.000000 0.000000 0.000000 0.000000 0.000000 0.000000 -87.965526 3.943746 -90.041649 -11.352339 62.362564 100.817233 -41.276448 36.808735 -0.794907 0.000000 0.000000 0.000000 -103.143422 22.854372 46.656344 77.208748 -26.749570 -30.374010 57.189431 -46.360711 33.893171 0.000000 0.000000 0.000000
-86.784461 26.741762 324.771506 28.671019 -2.231234 45.642489 1.273031 -3.254599 -44.485958 0.849364 -1.062231 1.483825 -53.490224 13.970370 5.761359 0.000000 0.000000 0.000000 -44.484266 23.827083 0.639793 30.715351 3.003704 11.913759 14.707312 15.810007 1.939745 -87.668570 -4.830978 -46.534258 0.000000 0.000000 0.000000 0.000000 0.000000 0.000000 -35.056679 28.019156 2.954795 -42.365621 20.539607 58.633435 -166.391327 -66.645412 -176.144051 12.592651 77.158494 -26.656750 0.000000 0.000000 0.000000 0.000000 0.000000 0.000000 -92.409016 6.595393 -82.321237 0.729823 68.044136 84.976236 -35.781776 35.316016 -4.965482 0.000000 0.000000 0.000000 -106.518750 28.334436 47.590892 75.566985 -26.011556 -23.631342 51.174288 -56.770451 41.104709 0.000000 0.000000 0.000000
-86.887031 27.011253 324.485176 28.086523 -2.373214 48.690932 1.378222 -3.724339 -47.503313 1.013270 -0.967617 1.450884 -51.494014 13.655589 6.139386 0.000000 0.000000 0.000000 -42.087210 30.891364 3.926556 41.511635 8.803662 17.497693 10.938218 15.160541 -3.147999 -98.671702 -3.005279 -56.035306 0.000000 0.000000 0.000000 0.000000 0.000000 0.000000 -37.382696 31.984863 3.881199 -39.536373 18.354397 54.145114 -177.565237 -73.749016 176.270255 -12.049924 58.479252 -37.916366 0.000000 0.000000 0.000000 0.000000 0.000000 0.000000 -96.091221 6.160797 -73.727007 19.050152 71.511915 62.244649 -30.626182 31.403576 -3.374544 0.000000 0.000000 0.000000 -106.415046 34.826453 43.717760 71.005209 -23.019807 -16.458658 28.516915 -62.660288 35.819670 0.000000 0.000000 0.000000
-87.005166 27.802946 324.105689 28.627471 -2.013364 48.956462 1.187887 -3.484624 -47.851780 0.993684 -0.856534 1.423537 -48.673619 11.517716 3.191106 0.000000 0.000000 0.000000 -39.764510 36.109085 6.335726 48.789113 13.702589 22.491742 6.028908 12.572700 -8.853618 -103.491885 -3.258944 -61.616643 0.000000 0.000000 0.000000 0.000000 0.000000 0.000000 -35.347147 31.404583 3.388150 -40.116745 19.627156 50.995146 91.532685 -84.547257 91.513576 -31.799671 34.274631 -70.579187 0.000000 0.000000 0.000000 0.000000 0.000000 0.000000 -102.317158 0.924014 -62.994357 51.245496 72.326847 25.053429 -28.419844 29.002936 -1.881848 0.000000 0.000000 0.000000 -106.526692 36.446101 41.946541 67.000308 -21.409186 -12.801982 20.302634 -66.861308 31.913421 0.000000 0.000000 0.000000
-87.291781 28.923070 323.918414 29.338800 -1.658159 49.748708 0.280102 -2.259968 -48.772589 0.379329 -0.558383 1.278173 -41.347371 6.952351 -1.903657 0.000000 0.000000 0.000000 -37.425431 39.056795 7.503557 53.578706 17.644083 26.997012 1.071329 10.337719 -15.453435 -104.543485 -6.413399 -64.185225 0.000000 0.000000 0.000000 0.000000 0.000000 0.000000 -35.445856 32.151296 3.541401 -37.484469 18.393305 47.949056 24.807756 -69.984291 29.583606 -57.476653 38.893467 -131.899664 0.000000 0.000000 0.000000 0.000000 0.000000 0.000000 -104.594498 -4.181552 -51.712482 69.938350 66.273268 0.476317 -28.893175 27.849741 -1.000671 0.000000 0.000000 0.000000 -104.841424 38.488924 39.987521 62.584034 -18.788735 -12.033627 29.953813 -71.675543 37.930947 0.000000 0.000000 0.000000
-87.365268 30.274433 323.818542 29.929710 -2.123782 50.635630 -0.229768 -1.723146 -49.503971 0.378771 -0.505810 1.259760 -36.351017 5.515488 -1.857609 0.000000 0.000000 0.000000 -36.798091 40.763393 8.283505 56.471682 20.563943 29.856070 -3.136175 9.398890 -22.854080 -103.384203 -12.053587 -64.277936 0.000000 0.000000 0.000000 0.000000 0.000000 0.000000 -32.695308 31.413759 3.168221 -38.303947 19.928324 45.668570 16.242988 -56.303141 24.894909 -44.660586 13.758275 -115.022281 0.000000 0.000000 0.000000 0.000000 0.000000 0.000000 -103.988591 -8.169988 -41.599586 76.281305 59.887067 -10.975444 -26.993362 26.349718 -3.729039 0.000000 0.000000 0.000000 -105.379749 39.593790 40.482126 62.167823 -15.167550 -12.775487 78.978923 -72.187689 70.667758 0.000000 0.000000 0.000000
-87.566876 31.476769 323.555550 30.019854 -2.492012 51.869885 -0.836429 -1.366271 -50.558948 0.390163 -0.544644 1.254709 -31.720754 5.440216 -0.115461 0.000000 0.000000 0.000000 -36.732427 40.492775 8.172008 58.849044 23.746106 30.711813 -10.026405 7.786158 -28.876986 -96.518945 -20.837436 -59.215159 0.000000 0.000000 0.000000 0.000000 0.000000 0.000000 -31.342331 31.565164 3.171830 -39.265468 21.542460 44.612298 8.827420 -40.558606 19.322746 -3.116497 -18.507145 -33.754569 0.000000 0.000000 0.000000 0.000000 0.000000 0.000000 -102.759338 -9.630770 -35.479713 78.221416 56.196901 -16.143471 -25.807157 25.189706 -5.861697 0.000000 0.000000 0.000000 -105.374090 41.351665 40.273069 59.112604 -11.501050 -11.072742 122.056707 -65.895462 89.457256 0.000000 0.000000 0.000000
